<svg viewBox="0 0 990 53.59" xmlns:xlink="http://www.w3.org/1999/xlink" xmlns="http://www.w3.org/2000/svg" id="Layer_1"><defs><style>.cls-1{fill:none;}.cls-2{clip-path:url(#clippath);}</style><clipPath id="clippath"><rect height="53.59" width="990" y="0" class="cls-1"></rect></clipPath></defs><g class="cls-2"><path d="M41.87,1.35v17.77h-1.98c-2.33-8.35-5.85-16.57-15.45-16.57-10.8,0-15.75,7.91-15.75,24.25,0,18.07,9,24.25,15.52,24.25,11.92,0,16.27-7.9,17.17-17.92h2.13c-.69,12.35-6.55,20.47-20.66,20.47C10.04,53.59,0,40.72,0,26.79S10.04,0,23.68,0c6.68,0,12.08,4.21,13.35,4.21,1.35,0,2.63-1.51,3.08-2.86h1.76Z"></path><path d="M87.76,52.71v-2.55c5.62,0,6.9-1.36,6.9-4.98V8.41c0-3.62-1.28-4.98-6.9-4.98V.88h21.84v2.55c-6.06,0-7.34,1.35-7.34,4.98v15.83h22.15v-15.83c0-3.62-1.28-4.98-7.03-4.98V.88h21.39v2.55c-5.47,0-6.75,1.35-6.75,4.98v36.77c0,3.62,1.28,4.98,7.05,4.98v2.55h-21.54v-2.55c5.61,0,6.89-1.36,6.89-4.98v-18.39h-22.15v18.39c0,3.62,1.28,4.98,7.48,4.98v2.55h-21.99Z"></path><path d="M198.73,52.71v-2.55c-6.44,0-7.94-1.06-7.94-3.93,0-2.11,2.17-6.65,3.45-10.89h17.67c2.02,4.39,4.19,10.43,4.19,12.02,0,2.2-.3,2.8-5.91,2.8v2.55h20.82v-2.55c-4.34,0-6.07-1.36-8.31-7.18L206.29.59h-2.7l-15.13,41.55c-1.65,4.62-3.22,8.02-9.29,8.02v2.55h19.54ZM195.28,32.2l7.49-19.79,7.94,19.79h-15.43Z"></path><path d="M284.77.88l26.98,38.82h.15V8.41c0-3.62-1.28-4.98-7.42-4.98V.88h17.06v2.55c-5.25,0-6.52,1.36-6.52,4.98v44.79h-2.91l-29.44-41.92h-.15v33.9c0,3.62,1.27,4.98,7.87,4.98v2.55h-18.41v-2.55c6.14,0,7.42-1.35,7.42-4.98V6.53c-2.4-2.79-3.75-3.09-7.57-3.09V.88h12.94Z"></path><path d="M405.71,18.66c-1.57-9.5-5.03-15.23-15.62-15.23v41.74c0,3.62,1.28,4.98,7.21,4.98v2.55h-22.03v-2.55c5.93,0,7.21-1.36,7.21-4.98V3.44c-10.59,0-14.05,5.73-15.62,15.23h-2.36l.45-17.78h42.66l.45,17.78h-2.36Z"></path><path d="M494.65,52.71h-43.71v-2.55c5.69,0,6.97-1.36,6.97-4.98V8.4c0-3.61-1.27-4.96-6.97-4.96V.88h42.44l.45,18.5h-2.35c-3.61-11.43-7.83-15.94-17.83-15.94-4.41,0-8.14,1.2-8.14,4.96v15.95c7.84-.16,11.2-.91,12.4-9.11l2.13-.07v20.79h-2.13c-1.19-8.16-4.56-8.92-12.4-9.07v19.94c0,2.42,1.56,3.33,6.12,3.33,10.05,0,17.82-2.26,21.11-16.84h2.35l-.45,19.4Z"></path><path d="M583.4,1.35v17.77h-1.99c-2.32-8.35-5.84-16.57-15.44-16.57-10.8,0-15.75,7.91-15.75,24.25,0,18.07,8.99,24.25,15.52,24.25,11.92,0,16.28-7.9,17.18-17.92h2.13c-.68,12.35-6.56,20.47-20.66,20.47-12.82,0-22.85-12.87-22.85-26.8s10.03-26.79,23.68-26.79c6.68,0,12.07,4.21,13.35,4.21,1.36,0,2.63-1.51,3.08-2.86h1.76Z"></path><path d="M646.1,52.71v-2.55c-6.43,0-7.94-1.06-7.94-3.93,0-2.11,2.17-6.65,3.45-10.89h17.67c2.03,4.39,4.2,10.43,4.2,12.02,0,2.2-.3,2.8-5.92,2.8v2.55h20.82v-2.55c-4.34,0-6.06-1.36-8.31-7.18L653.66.59h-2.7l-15.12,41.55c-1.65,4.62-3.22,8.02-9.28,8.02v2.55h19.54ZM642.65,32.2l7.49-19.79,7.94,19.79h-15.44Z"></path><path d="M739.95.88v2.55c-5.92,0-7.2,1.36-7.2,4.98v36.77c0,3.62,1.28,4.98,7.2,4.98v2.55h-22v-2.55c5.92,0,7.19-1.35,7.19-4.98V8.41c0-3.62-1.27-4.98-7.19-4.98V.88h22Z"></path><path d="M821.66,52.71h-39.3v-2.55c5.47,0,6.75-1.36,6.75-4.98V8.41c0-3.62-1.28-4.98-6.6-4.98V.88h21.41v2.55c-5.93,0-7.21,1.35-7.21,4.98v36.77c0,3.62,1.66,4.98,5.49,4.98,6.45,0,14.26-2.26,17.55-16.81h2.36l-.45,19.36Z"></path><path d="M902.92,52.71h-39.29v-2.55c5.47,0,6.74-1.36,6.74-4.98V8.41c0-3.62-1.27-4.98-6.59-4.98V.88h21.41v2.55c-5.94,0-7.21,1.35-7.21,4.98v36.77c0,3.62,1.65,4.98,5.48,4.98,6.45,0,14.25-2.26,17.56-16.81h2.36l-.46,19.36Z"></path><path d="M989.56,52.71h-43.72v-2.55c5.7,0,6.97-1.36,6.97-4.98V8.4c0-3.61-1.27-4.96-6.97-4.96V.88h42.44l.45,18.5h-2.35c-3.62-11.43-7.83-15.94-17.82-15.94-4.41,0-8.15,1.2-8.15,4.96v15.95c7.85-.16,11.21-.91,12.41-9.11l2.13-.07v20.79h-2.13c-1.19-8.16-4.56-8.92-12.41-9.07v19.94c0,2.42,1.58,3.33,6.13,3.33,10.05,0,17.82-2.26,21.11-16.84h2.35l-.45,19.4Z"></path></g></svg>